<svg width="316" height="105" viewBox="0 0 316 105" fill="none" xmlns="http://www.w3.org/2000/svg">
<path d="M68.8652 65.1263H54V82.2124H68.8652V65.1263Z" fill="#D03D96"/>
<path d="M54.136 60.9235H68.8678L83.4473 44.0545H68.8678V10L54.0293 26.9868L54.136 60.9235Z" fill="#D03D96"/>
<path d="M104 22.7843H89.1348V39.8704H104V22.7843Z" fill="#A64CB1"/>
<path d="M103.862 44.0728H89.1342L74.5547 60.9455H89.1342V95L103.969 78.0132L103.862 44.0728Z" fill="#3C70F6"/>
<path d="M130.941 49.1758C129.527 49.2383 126.43 49.7109 121.648 50.5938C121.539 51.2188 121.348 52.1094 121.074 53.2656C120.801 54.5078 120.617 55.4023 120.523 55.9492C120.461 56.3867 120.246 56.75 119.879 57.0391C119.52 57.3359 119.125 57.4844 118.695 57.4844C118.297 57.4844 117.973 57.3555 117.723 57.0977C117.473 56.8477 117.348 56.5391 117.348 56.1719C117.348 55.8203 117.605 54.5625 118.121 52.3984C118.59 50.5234 119.375 46.332 120.477 39.8242C120.539 39.3867 120.746 39.0234 121.098 38.7344C121.449 38.4375 121.852 38.2891 122.305 38.2891C122.695 38.2891 123.02 38.4102 123.277 38.6523C123.535 38.8945 123.664 39.2031 123.664 39.5781C123.664 39.8594 123.488 40.8359 123.137 42.5078L122.855 44.0547C122.691 45 122.547 45.75 122.422 46.3047C122.305 46.7344 122.215 47.1328 122.152 47.5L126.816 46.6328C128.41 46.3359 129.945 46.1602 131.422 46.1055C131.547 45.5742 131.828 44.168 132.266 41.8867C132.375 41.1914 132.707 40.4336 133.262 39.6133C133.816 38.793 134.34 38.3828 134.832 38.3828C135.223 38.3828 135.555 38.5078 135.828 38.7578C136.109 39.0078 136.25 39.3086 136.25 39.6602C136.25 39.8633 136.207 40.0625 136.121 40.2578C135.895 40.7812 135.707 41.4102 135.559 42.1445C135.52 42.3164 135.469 42.5156 135.406 42.7422C135.289 43.2969 135.223 43.6367 135.207 43.7617C135.137 44.1992 134.922 45.3008 134.562 47.0664C134.133 49.0898 133.875 50.5469 133.789 51.4375L133.426 55.1641C133.379 55.7422 133.172 56.1914 132.805 56.5117C132.438 56.8398 132.008 57.0039 131.516 57.0039C131.094 57.0039 130.742 56.8789 130.461 56.6289C130.188 56.3789 130.051 56.082 130.051 55.7383L130.578 51.4375C130.625 51.0078 130.676 50.6562 130.73 50.3828L130.836 49.7383C130.859 49.543 130.895 49.3555 130.941 49.1758ZM138.559 52.9727C139.23 53.7852 140.23 54.1914 141.559 54.1914C142.59 54.1914 143.508 53.9766 144.312 53.5469C145.031 53.1641 145.586 52.9727 145.977 52.9727C146.664 52.9727 147.008 53.2695 147.008 53.8633C147.008 54.7773 146.391 55.5352 145.156 56.1367C143.922 56.7305 142.57 57.0273 141.102 57.0273C139.297 57.0273 137.883 56.625 136.859 55.8203C135.844 55.0078 135.336 53.918 135.336 52.5508C135.336 50.6367 136.016 48.7773 137.375 46.9727C138.742 45.168 140.551 44.2656 142.801 44.2656C144.277 44.2656 145.426 44.5117 146.246 45.0039C147.074 45.4883 147.488 46.1797 147.488 47.0781C147.488 47.9297 147.16 48.6484 146.504 49.2344C145.855 49.8125 144.613 50.4727 142.777 51.2148L138.559 52.9727ZM138.77 49.9961L141.605 48.8711C142.637 48.4258 143.547 47.9766 144.336 47.5234C143.875 47.2344 143.223 47.0898 142.379 47.0898C140.934 47.0898 139.73 48.0586 138.77 49.9961ZM156.711 56.0898C155.172 56.793 154.02 57.1445 153.254 57.1445C150.035 57.1445 148.426 55.6641 148.426 52.7031C148.426 50.2422 149.285 48.2227 151.004 46.6445C152.723 45.0586 154.625 44.2656 156.711 44.2656C157.477 44.2656 158.328 44.4922 159.266 44.9453C160.211 45.3906 160.684 45.8984 160.684 46.4688C160.684 46.8203 160.559 47.1328 160.309 47.4062C160.043 48.0312 159.816 48.9375 159.629 50.125C159.449 51.3125 159.359 52.2031 159.359 52.7969C159.359 53.1406 159.383 53.3828 159.43 53.5234L159.781 54.6719C159.961 55.2812 160.051 55.6562 160.051 55.7969C160.051 56.0938 159.875 56.4141 159.523 56.7578C159.172 57.1016 158.738 57.2734 158.223 57.2734C157.887 57.2734 157.383 56.8789 156.711 56.0898ZM157.121 47.2891C156.887 47.1406 156.664 47.0664 156.453 47.0664C155.289 47.0664 154.211 47.5586 153.219 48.543C152.227 49.5195 151.73 50.7695 151.73 52.293C151.73 53.6758 152.336 54.3672 153.547 54.3672C154.531 54.3672 155.449 54.0469 156.301 53.4062C156.387 50.4531 156.66 48.4141 157.121 47.2891ZM166.332 54.7773C166.098 56.2617 165.441 57.0039 164.363 57.0039C163.902 57.0039 163.539 56.8594 163.273 56.5703C163.008 56.2812 162.914 55.8984 162.992 55.4219L165.57 39.1914C165.641 38.7383 165.859 38.375 166.227 38.1016C166.602 37.8203 167.012 37.6797 167.457 37.6797C167.926 37.6797 168.281 37.8242 168.523 38.1133C168.773 38.3945 168.867 38.7539 168.805 39.1914L166.332 54.7773ZM178.074 47.2656H177.125C176.57 47.2656 176.109 47.2734 175.742 47.2891C175.695 47.4219 175.656 47.5469 175.625 47.6641C175.594 47.7891 175.559 47.918 175.52 48.0508C174.918 50.0898 174.617 51.6172 174.617 52.6328C174.617 53.5469 174.801 54.0039 175.168 54.0039C175.535 54.0039 175.922 53.7969 176.328 53.3828C176.727 52.9688 177.098 52.7617 177.441 52.7617C177.762 52.7617 178.07 52.8945 178.367 53.1602C178.664 53.4258 178.812 53.7773 178.812 54.2148C178.812 54.9805 178.359 55.6367 177.453 56.1836C176.547 56.7305 175.641 57.0039 174.734 57.0039C172.555 57.0039 171.465 55.6836 171.465 53.043C171.465 51.6055 171.852 49.7188 172.625 47.3828C171.297 47.3125 170.48 47.1562 170.176 46.9141C169.871 46.6641 169.719 46.25 169.719 45.6719C169.719 45.1953 169.875 44.8086 170.188 44.5117C170.508 44.2148 170.918 44.0664 171.418 44.0664L173.246 44.2305L173.527 41.8867C173.574 41.4805 173.758 41.1328 174.078 40.8438C174.406 40.5469 174.793 40.3984 175.238 40.3984C176.168 40.3984 176.633 41.0469 176.633 42.3438C176.633 42.5703 176.551 43.1758 176.387 44.1602C176.613 44.1367 176.797 44.1133 176.938 44.0898C177.375 44.0352 177.961 44.0664 178.695 44.1836C179.43 44.3008 179.797 44.7734 179.797 45.6016C179.797 46.1094 179.625 46.5156 179.281 46.8203C178.945 47.1172 178.543 47.2656 178.074 47.2656ZM185.445 45.7773C186.742 44.6523 188.133 44.0898 189.617 44.0898C190.672 44.0898 191.461 44.3203 191.984 44.7812C192.508 45.2344 192.77 46.0039 192.77 47.0898C192.77 47.3164 192.758 47.5586 192.734 47.8164C192.414 50.0039 192.254 52.0625 192.254 53.9922C192.254 54.6953 192.273 55.1992 192.312 55.5039C192.352 55.8555 192.184 56.2266 191.809 56.6172C191.441 57.0156 190.977 57.2148 190.414 57.2148C189.844 57.2148 189.453 57.0273 189.242 56.6523C189.039 56.2852 188.938 55.4141 188.938 54.0391C188.938 52.4453 189.109 50.8594 189.453 49.2812C189.578 48.6719 189.641 48.2227 189.641 47.9336C189.641 47.4648 189.473 47.2305 189.137 47.2305C187.785 47.2305 186.328 48.3906 184.766 50.7109C184.305 53.6641 183.871 55.418 183.465 55.9727C183.059 56.5195 182.551 56.793 181.941 56.793C181.512 56.793 181.16 56.6602 180.887 56.3945C180.613 56.1289 180.477 55.8281 180.477 55.4922C180.477 55.2344 180.562 54.9453 180.734 54.625C180.844 54.375 181.137 52.7656 181.613 49.7969L182.609 43.6328L182.703 43.2578C182.977 42.1641 183.113 41.1875 183.113 40.3281C183.113 39.6094 183.18 39.1016 183.312 38.8047C183.445 38.5 183.672 38.2461 183.992 38.043C184.32 37.832 184.676 37.7266 185.059 37.7266C186.004 37.7266 186.477 38.3359 186.477 39.5547C186.477 40.4766 186.277 41.7891 185.879 43.4922C185.73 44.1484 185.586 44.9102 185.445 45.7773ZM198.16 55.3047C197.785 54.0859 196.828 51.5898 195.289 47.8164C194.875 47.0273 194.668 46.4688 194.668 46.1406C194.668 45.7109 194.871 45.3047 195.277 44.9219C195.684 44.5312 196.125 44.3359 196.602 44.3359C196.953 44.3359 197.25 44.4336 197.492 44.6289C197.734 44.8164 198.156 45.5742 198.758 46.9023C199.359 48.2305 199.953 49.7891 200.539 51.5781C202.68 48.0391 204.027 45.9453 204.582 45.2969C205.145 44.6406 205.695 44.3125 206.234 44.3125C206.641 44.3125 206.984 44.4414 207.266 44.6992C207.547 44.957 207.688 45.2617 207.688 45.6133C207.688 45.9023 207.582 46.2227 207.371 46.5742C207.168 46.918 205.379 49.7148 202.004 54.9648C200.402 57.3867 199.211 59.3711 198.43 60.918C197.883 62.0039 197.48 62.6719 197.223 62.9219C196.965 63.1719 196.598 63.2969 196.121 63.2969C195.699 63.2969 195.348 63.168 195.066 62.9102C194.793 62.6523 194.656 62.3477 194.656 61.9961C194.656 61.3164 195.824 59.0859 198.16 55.3047Z" fill="#3B70F6"/>
<path d="M162.711 66.0469C162.482 67.0625 162.242 68.3359 161.992 69.8672L161.445 73.375L162.492 73.3594C162.94 73.3542 163.307 73.3568 163.594 73.3672C163.885 73.3724 164.107 73.4609 164.258 73.6328C164.409 73.8047 164.484 74.0026 164.484 74.2266C164.484 74.5599 164.357 74.8516 164.102 75.1016C163.852 75.3464 163.56 75.4688 163.227 75.4688H162.68C162.466 75.4688 162.211 75.474 161.914 75.4844L161.141 75.5C160.307 75.5156 159.599 75.5625 159.016 75.6406C158.344 75.7396 157.826 75.7891 157.461 75.7891C157.185 75.7891 156.958 75.7031 156.781 75.5312C156.609 75.3646 156.523 75.1589 156.523 74.9141C156.523 74.5807 156.648 74.2891 156.898 74.0391C157.154 73.7839 157.453 73.6562 157.797 73.6562C158.229 73.6562 158.701 73.6198 159.211 73.5469C159.742 69.8698 160.19 67.3411 160.555 65.9609L158.844 66.0156C158.589 66.026 158.367 65.9479 158.18 65.7812C157.992 65.6146 157.898 65.3958 157.898 65.125C157.898 64.8125 158.013 64.5339 158.242 64.2891C158.477 64.0391 158.797 63.901 159.203 63.875C159.615 63.849 160.38 63.8359 161.5 63.8359C162.177 63.8359 162.969 63.8828 163.875 63.9766C164.781 64.0703 165.339 64.1406 165.547 64.1875C165.755 64.2292 165.917 64.3177 166.031 64.4531C166.146 64.5833 166.203 64.763 166.203 64.9922C166.203 65.3724 166.073 65.6797 165.812 65.9141C165.557 66.1484 165.255 66.2656 164.906 66.2656C164.651 66.2656 163.919 66.1927 162.711 66.0469ZM168.602 68.5859C169.534 67.6693 170.354 67.2109 171.062 67.2109C171.875 67.2109 172.409 67.5208 172.664 68.1406C173.378 67.5729 174.193 67.2891 175.109 67.2891C176.37 67.2891 177 68.0521 177 69.5781C177 69.9219 176.984 70.3698 176.953 70.9219C176.948 71.0156 176.932 71.8021 176.906 73.2812C176.891 74.0781 176.87 74.6667 176.844 75.0469C176.818 75.4219 176.674 75.7031 176.414 75.8906C176.154 76.0781 175.88 76.1719 175.594 76.1719C175.26 76.1719 175.023 76.0833 174.883 75.9062C174.742 75.7292 174.672 75.388 174.672 74.8828L174.852 70.7344C174.852 69.7917 174.747 69.3203 174.539 69.3203C174.435 69.3203 174.128 69.4531 173.617 69.7188C173.112 69.9792 172.779 70.1719 172.617 70.2969C172.534 70.7448 172.474 71.599 172.438 72.8594C172.365 74.4531 172.281 75.3776 172.188 75.6328C172.094 75.888 171.935 76.0911 171.711 76.2422C171.492 76.3984 171.255 76.4766 171 76.4766C170.719 76.4766 170.49 76.3906 170.312 76.2188C170.141 76.0521 170.055 75.8516 170.055 75.6172L170.164 74.7422C170.211 74.3464 170.255 73.7031 170.297 72.8125C170.365 71.5625 170.438 70.6875 170.516 70.1875C170.568 69.8646 170.586 69.599 170.57 69.3906C169.878 69.7448 169.125 70.3776 168.312 71.2891L167.672 74.9062C167.641 75.1771 167.505 75.3932 167.266 75.5547C167.026 75.7214 166.74 75.8047 166.406 75.8047C165.849 75.8047 165.57 75.4792 165.57 74.8281C165.57 74.599 165.599 74.3151 165.656 73.9766L166.102 71.0859C166.216 70.3568 166.297 69.7526 166.344 69.2734C166.411 68.5234 166.589 67.9297 166.875 67.4922C167.161 67.0495 167.474 66.8281 167.812 66.8281C168.089 66.8281 168.32 66.9271 168.508 67.125C168.701 67.3177 168.797 67.5365 168.797 67.7812C168.797 67.849 168.732 68.1172 168.602 68.5859ZM180.062 75.8047L179.562 78.9844C179.516 79.2917 179.375 79.5443 179.141 79.7422C178.906 79.9453 178.633 80.0469 178.32 80.0469C178.034 80.0469 177.807 79.9635 177.641 79.7969C177.474 79.6354 177.391 79.4297 177.391 79.1797C177.391 79.0339 177.555 78 177.883 76.0781C178.372 73.0885 178.68 70.7188 178.805 68.9688C178.846 68.3125 179.013 67.8047 179.305 67.4453C179.602 67.0859 179.935 66.9062 180.305 66.9062C180.596 66.9062 180.826 67.0052 180.992 67.2031C181.159 67.3958 181.221 67.6328 181.18 67.9141L181.148 67.9922C181.909 67.612 182.641 67.4219 183.344 67.4219C185.12 67.4219 186.008 68.4349 186.008 70.4609C186.008 72.2526 185.547 73.6172 184.625 74.5547C183.708 75.4922 182.651 75.9609 181.453 75.9609C180.953 75.9609 180.49 75.9089 180.062 75.8047ZM180.859 70.4297C180.766 71.2526 180.622 72.3229 180.43 73.6406C180.867 73.7917 181.32 73.8672 181.789 73.8672C182.513 73.8672 183.036 73.5495 183.359 72.9141C183.688 72.2786 183.852 71.5547 183.852 70.7422C183.852 69.9141 183.576 69.5 183.023 69.5C182.362 69.5 181.641 69.8099 180.859 70.4297ZM193.977 69.8672C193.935 70.1641 193.807 70.4401 193.594 70.6953C193.385 70.9453 193.086 71.0703 192.695 71.0703C192.143 71.0703 191.867 70.8203 191.867 70.3203C191.867 70.237 191.875 70.1458 191.891 70.0469L191.961 69.2578C190.768 69.4401 189.833 70.0443 189.156 71.0703L188.547 74.9844C188.5 75.276 188.362 75.5234 188.133 75.7266C187.904 75.9297 187.628 76.0312 187.305 76.0312C187.013 76.0312 186.792 75.9323 186.641 75.7344C186.49 75.5417 186.438 75.2917 186.484 74.9844L187.289 69.8672L187.484 68.75C187.542 68.3854 187.609 68.125 187.688 67.9688C187.771 67.8125 187.901 67.6797 188.078 67.5703C188.26 67.4609 188.471 67.4062 188.711 67.4062C189.294 67.4062 189.594 67.7031 189.609 68.2969C190.641 67.6042 191.716 67.2578 192.836 67.2578C193.69 67.2578 194.117 67.7292 194.117 68.6719C194.117 68.875 194.096 69.099 194.055 69.3438L193.977 69.8672ZM196.18 73.1484C196.628 73.6901 197.294 73.9609 198.18 73.9609C198.867 73.9609 199.479 73.8177 200.016 73.5312C200.495 73.276 200.865 73.1484 201.125 73.1484C201.583 73.1484 201.812 73.3464 201.812 73.7422C201.812 74.3516 201.401 74.8568 200.578 75.2578C199.755 75.6536 198.854 75.8516 197.875 75.8516C196.672 75.8516 195.729 75.5833 195.047 75.0469C194.37 74.5052 194.031 73.7786 194.031 72.8672C194.031 71.5911 194.484 70.3516 195.391 69.1484C196.302 67.9453 197.508 67.3438 199.008 67.3438C199.992 67.3438 200.758 67.5078 201.305 67.8359C201.857 68.1589 202.133 68.6198 202.133 69.2188C202.133 69.7865 201.914 70.2656 201.477 70.6562C201.044 71.0417 200.216 71.4818 198.992 71.9766L196.18 73.1484ZM196.32 71.1641L198.211 70.4141C198.898 70.1172 199.505 69.8177 200.031 69.5156C199.724 69.3229 199.289 69.2266 198.727 69.2266C197.763 69.2266 196.961 69.8724 196.32 71.1641ZM208.617 69.1328C208.404 69.1016 208.19 69.0859 207.977 69.0859C206.674 69.0859 206.023 69.2656 206.023 69.625C206.023 69.8333 206.359 70.0964 207.031 70.4141C208.146 70.9766 208.885 71.4453 209.25 71.8203C209.62 72.1901 209.805 72.625 209.805 73.125C209.805 73.8958 209.43 74.5625 208.68 75.125C207.935 75.6823 206.922 75.9609 205.641 75.9609C204.901 75.9609 204.245 75.8359 203.672 75.5859C203.099 75.3359 202.812 74.9948 202.812 74.5625C202.812 73.9062 203.169 73.5781 203.883 73.5781C204.122 73.5781 204.453 73.6536 204.875 73.8047C205.339 73.9557 205.68 74.0312 205.898 74.0312C207.023 74.0312 207.586 73.7995 207.586 73.3359C207.586 73.0859 207.268 72.8099 206.633 72.5078C205.544 71.9974 204.815 71.5755 204.445 71.2422C204.081 70.9089 203.898 70.4766 203.898 69.9453C203.898 69.1745 204.232 68.5182 204.898 67.9766C205.565 67.4349 206.911 67.1641 208.938 67.1641C209.948 67.1641 210.453 67.4792 210.453 68.1094C210.453 68.4375 210.37 68.7995 210.203 69.1953C210.036 69.5911 209.786 69.7891 209.453 69.7891C208.927 69.7891 208.648 69.5703 208.617 69.1328ZM216.414 69.1328C216.201 69.1016 215.987 69.0859 215.773 69.0859C214.471 69.0859 213.82 69.2656 213.82 69.625C213.82 69.8333 214.156 70.0964 214.828 70.4141C215.943 70.9766 216.682 71.4453 217.047 71.8203C217.417 72.1901 217.602 72.625 217.602 73.125C217.602 73.8958 217.227 74.5625 216.477 75.125C215.732 75.6823 214.719 75.9609 213.438 75.9609C212.698 75.9609 212.042 75.8359 211.469 75.5859C210.896 75.3359 210.609 74.9948 210.609 74.5625C210.609 73.9062 210.966 73.5781 211.68 73.5781C211.919 73.5781 212.25 73.6536 212.672 73.8047C213.135 73.9557 213.477 74.0312 213.695 74.0312C214.82 74.0312 215.383 73.7995 215.383 73.3359C215.383 73.0859 215.065 72.8099 214.43 72.5078C213.341 71.9974 212.612 71.5755 212.242 71.2422C211.878 70.9089 211.695 70.4766 211.695 69.9453C211.695 69.1745 212.029 68.5182 212.695 67.9766C213.362 67.4349 214.708 67.1641 216.734 67.1641C217.745 67.1641 218.25 67.4792 218.25 68.1094C218.25 68.4375 218.167 68.7995 218 69.1953C217.833 69.5911 217.583 69.7891 217.25 69.7891C216.724 69.7891 216.445 69.5703 216.414 69.1328Z" fill="#A64CB1"/>
</svg>
