<svg width="200" height="85" viewBox="0 0 200 85" fill="none" xmlns="http://www.w3.org/2000/svg">
<path d="M24.8652 55.1263H10V72.2125H24.8652V55.1263Z" fill="white"/>
<path d="M10.136 50.9235H24.8678L39.4473 34.0545H24.8678V0L10.0293 16.9868L10.136 50.9235Z" fill="white"/>
<path d="M59.9999 12.7843H45.1348V29.8704H59.9999V12.7843Z" fill="white"/>
<path d="M59.8623 34.0729H45.1342L30.5547 50.9456H45.1342V85L59.9689 68.0133L59.8623 34.0729Z" fill="white"/>
<path d="M86.9414 38.1758C85.5273 38.2383 82.4297 38.7109 77.6484 39.5938C77.5391 40.2188 77.3477 41.1094 77.0742 42.2656C76.8008 43.5078 76.6172 44.4023 76.5234 44.9492C76.4609 45.3867 76.2461 45.75 75.8789 46.0391C75.5195 46.3359 75.125 46.4844 74.6953 46.4844C74.2969 46.4844 73.9727 46.3555 73.7227 46.0977C73.4727 45.8477 73.3477 45.5391 73.3477 45.1719C73.3477 44.8203 73.6055 43.5625 74.1211 41.3984C74.5898 39.5234 75.375 35.332 76.4766 28.8242C76.5391 28.3867 76.7461 28.0234 77.0977 27.7344C77.4492 27.4375 77.8516 27.2891 78.3047 27.2891C78.6953 27.2891 79.0195 27.4102 79.2773 27.6523C79.5352 27.8945 79.6641 28.2031 79.6641 28.5781C79.6641 28.8594 79.4883 29.8359 79.1367 31.5078L78.8555 33.0547C78.6914 34 78.5469 34.75 78.4219 35.3047C78.3047 35.7344 78.2148 36.1328 78.1523 36.5L82.8164 35.6328C84.4102 35.3359 85.9453 35.1602 87.4219 35.1055C87.5469 34.5742 87.8281 33.168 88.2656 30.8867C88.375 30.1914 88.707 29.4336 89.2617 28.6133C89.8164 27.793 90.3398 27.3828 90.832 27.3828C91.2227 27.3828 91.5547 27.5078 91.8281 27.7578C92.1094 28.0078 92.25 28.3086 92.25 28.6602C92.25 28.8633 92.207 29.0625 92.1211 29.2578C91.8945 29.7812 91.707 30.4102 91.5586 31.1445C91.5195 31.3164 91.4688 31.5156 91.4062 31.7422C91.2891 32.2969 91.2227 32.6367 91.207 32.7617C91.1367 33.1992 90.9219 34.3008 90.5625 36.0664C90.1328 38.0898 89.875 39.5469 89.7891 40.4375L89.4258 44.1641C89.3789 44.7422 89.1719 45.1914 88.8047 45.5117C88.4375 45.8398 88.0078 46.0039 87.5156 46.0039C87.0938 46.0039 86.7422 45.8789 86.4609 45.6289C86.1875 45.3789 86.0508 45.082 86.0508 44.7383L86.5781 40.4375C86.625 40.0078 86.6758 39.6562 86.7305 39.3828L86.8359 38.7383C86.8594 38.543 86.8945 38.3555 86.9414 38.1758ZM94.5586 41.9727C95.2305 42.7852 96.2305 43.1914 97.5586 43.1914C98.5898 43.1914 99.5078 42.9766 100.312 42.5469C101.031 42.1641 101.586 41.9727 101.977 41.9727C102.664 41.9727 103.008 42.2695 103.008 42.8633C103.008 43.7773 102.391 44.5352 101.156 45.1367C99.9219 45.7305 98.5703 46.0273 97.1016 46.0273C95.2969 46.0273 93.8828 45.625 92.8594 44.8203C91.8438 44.0078 91.3359 42.918 91.3359 41.5508C91.3359 39.6367 92.0156 37.7773 93.375 35.9727C94.7422 34.168 96.5508 33.2656 98.8008 33.2656C100.277 33.2656 101.426 33.5117 102.246 34.0039C103.074 34.4883 103.488 35.1797 103.488 36.0781C103.488 36.9297 103.16 37.6484 102.504 38.2344C101.855 38.8125 100.613 39.4727 98.7773 40.2148L94.5586 41.9727ZM94.7695 38.9961L97.6055 37.8711C98.6367 37.4258 99.5469 36.9766 100.336 36.5234C99.875 36.2344 99.2227 36.0898 98.3789 36.0898C96.9336 36.0898 95.7305 37.0586 94.7695 38.9961ZM112.711 45.0898C111.172 45.793 110.02 46.1445 109.254 46.1445C106.035 46.1445 104.426 44.6641 104.426 41.7031C104.426 39.2422 105.285 37.2227 107.004 35.6445C108.723 34.0586 110.625 33.2656 112.711 33.2656C113.477 33.2656 114.328 33.4922 115.266 33.9453C116.211 34.3906 116.684 34.8984 116.684 35.4688C116.684 35.8203 116.559 36.1328 116.309 36.4062C116.043 37.0312 115.816 37.9375 115.629 39.125C115.449 40.3125 115.359 41.2031 115.359 41.7969C115.359 42.1406 115.383 42.3828 115.43 42.5234L115.781 43.6719C115.961 44.2812 116.051 44.6562 116.051 44.7969C116.051 45.0938 115.875 45.4141 115.523 45.7578C115.172 46.1016 114.738 46.2734 114.223 46.2734C113.887 46.2734 113.383 45.8789 112.711 45.0898ZM113.121 36.2891C112.887 36.1406 112.664 36.0664 112.453 36.0664C111.289 36.0664 110.211 36.5586 109.219 37.543C108.227 38.5195 107.73 39.7695 107.73 41.293C107.73 42.6758 108.336 43.3672 109.547 43.3672C110.531 43.3672 111.449 43.0469 112.301 42.4062C112.387 39.4531 112.66 37.4141 113.121 36.2891ZM122.332 43.7773C122.098 45.2617 121.441 46.0039 120.363 46.0039C119.902 46.0039 119.539 45.8594 119.273 45.5703C119.008 45.2812 118.914 44.8984 118.992 44.4219L121.57 28.1914C121.641 27.7383 121.859 27.375 122.227 27.1016C122.602 26.8203 123.012 26.6797 123.457 26.6797C123.926 26.6797 124.281 26.8242 124.523 27.1133C124.773 27.3945 124.867 27.7539 124.805 28.1914L122.332 43.7773ZM134.074 36.2656H133.125C132.57 36.2656 132.109 36.2734 131.742 36.2891C131.695 36.4219 131.656 36.5469 131.625 36.6641C131.594 36.7891 131.559 36.918 131.52 37.0508C130.918 39.0898 130.617 40.6172 130.617 41.6328C130.617 42.5469 130.801 43.0039 131.168 43.0039C131.535 43.0039 131.922 42.7969 132.328 42.3828C132.727 41.9688 133.098 41.7617 133.441 41.7617C133.762 41.7617 134.07 41.8945 134.367 42.1602C134.664 42.4258 134.812 42.7773 134.812 43.2148C134.812 43.9805 134.359 44.6367 133.453 45.1836C132.547 45.7305 131.641 46.0039 130.734 46.0039C128.555 46.0039 127.465 44.6836 127.465 42.043C127.465 40.6055 127.852 38.7188 128.625 36.3828C127.297 36.3125 126.48 36.1562 126.176 35.9141C125.871 35.6641 125.719 35.25 125.719 34.6719C125.719 34.1953 125.875 33.8086 126.188 33.5117C126.508 33.2148 126.918 33.0664 127.418 33.0664L129.246 33.2305L129.527 30.8867C129.574 30.4805 129.758 30.1328 130.078 29.8438C130.406 29.5469 130.793 29.3984 131.238 29.3984C132.168 29.3984 132.633 30.0469 132.633 31.3438C132.633 31.5703 132.551 32.1758 132.387 33.1602C132.613 33.1367 132.797 33.1133 132.938 33.0898C133.375 33.0352 133.961 33.0664 134.695 33.1836C135.43 33.3008 135.797 33.7734 135.797 34.6016C135.797 35.1094 135.625 35.5156 135.281 35.8203C134.945 36.1172 134.543 36.2656 134.074 36.2656ZM141.445 34.7773C142.742 33.6523 144.133 33.0898 145.617 33.0898C146.672 33.0898 147.461 33.3203 147.984 33.7812C148.508 34.2344 148.77 35.0039 148.77 36.0898C148.77 36.3164 148.758 36.5586 148.734 36.8164C148.414 39.0039 148.254 41.0625 148.254 42.9922C148.254 43.6953 148.273 44.1992 148.312 44.5039C148.352 44.8555 148.184 45.2266 147.809 45.6172C147.441 46.0156 146.977 46.2148 146.414 46.2148C145.844 46.2148 145.453 46.0273 145.242 45.6523C145.039 45.2852 144.938 44.4141 144.938 43.0391C144.938 41.4453 145.109 39.8594 145.453 38.2812C145.578 37.6719 145.641 37.2227 145.641 36.9336C145.641 36.4648 145.473 36.2305 145.137 36.2305C143.785 36.2305 142.328 37.3906 140.766 39.7109C140.305 42.6641 139.871 44.418 139.465 44.9727C139.059 45.5195 138.551 45.793 137.941 45.793C137.512 45.793 137.16 45.6602 136.887 45.3945C136.613 45.1289 136.477 44.8281 136.477 44.4922C136.477 44.2344 136.562 43.9453 136.734 43.625C136.844 43.375 137.137 41.7656 137.613 38.7969L138.609 32.6328L138.703 32.2578C138.977 31.1641 139.113 30.1875 139.113 29.3281C139.113 28.6094 139.18 28.1016 139.312 27.8047C139.445 27.5 139.672 27.2461 139.992 27.043C140.32 26.832 140.676 26.7266 141.059 26.7266C142.004 26.7266 142.477 27.3359 142.477 28.5547C142.477 29.4766 142.277 30.7891 141.879 32.4922C141.73 33.1484 141.586 33.9102 141.445 34.7773ZM154.16 44.3047C153.785 43.0859 152.828 40.5898 151.289 36.8164C150.875 36.0273 150.668 35.4688 150.668 35.1406C150.668 34.7109 150.871 34.3047 151.277 33.9219C151.684 33.5312 152.125 33.3359 152.602 33.3359C152.953 33.3359 153.25 33.4336 153.492 33.6289C153.734 33.8164 154.156 34.5742 154.758 35.9023C155.359 37.2305 155.953 38.7891 156.539 40.5781C158.68 37.0391 160.027 34.9453 160.582 34.2969C161.145 33.6406 161.695 33.3125 162.234 33.3125C162.641 33.3125 162.984 33.4414 163.266 33.6992C163.547 33.957 163.688 34.2617 163.688 34.6133C163.688 34.9023 163.582 35.2227 163.371 35.5742C163.168 35.918 161.379 38.7148 158.004 43.9648C156.402 46.3867 155.211 48.3711 154.43 49.918C153.883 51.0039 153.48 51.6719 153.223 51.9219C152.965 52.1719 152.598 52.2969 152.121 52.2969C151.699 52.2969 151.348 52.168 151.066 51.9102C150.793 51.6523 150.656 51.3477 150.656 50.9961C150.656 50.3164 151.824 48.0859 154.16 44.3047Z" fill="white"/>
<path d="M118.711 54.0469C118.482 55.0625 118.242 56.3359 117.992 57.8672L117.445 61.375L118.492 61.3594C118.94 61.3542 119.307 61.3568 119.594 61.3672C119.885 61.3724 120.107 61.4609 120.258 61.6328C120.409 61.8047 120.484 62.0026 120.484 62.2266C120.484 62.5599 120.357 62.8516 120.102 63.1016C119.852 63.3464 119.56 63.4688 119.227 63.4688H118.68C118.466 63.4688 118.211 63.474 117.914 63.4844L117.141 63.5C116.307 63.5156 115.599 63.5625 115.016 63.6406C114.344 63.7396 113.826 63.7891 113.461 63.7891C113.185 63.7891 112.958 63.7031 112.781 63.5312C112.609 63.3646 112.523 63.1589 112.523 62.9141C112.523 62.5807 112.648 62.2891 112.898 62.0391C113.154 61.7839 113.453 61.6562 113.797 61.6562C114.229 61.6562 114.701 61.6198 115.211 61.5469C115.742 57.8698 116.19 55.3411 116.555 53.9609L114.844 54.0156C114.589 54.026 114.367 53.9479 114.18 53.7812C113.992 53.6146 113.898 53.3958 113.898 53.125C113.898 52.8125 114.013 52.5339 114.242 52.2891C114.477 52.0391 114.797 51.901 115.203 51.875C115.615 51.849 116.38 51.8359 117.5 51.8359C118.177 51.8359 118.969 51.8828 119.875 51.9766C120.781 52.0703 121.339 52.1406 121.547 52.1875C121.755 52.2292 121.917 52.3177 122.031 52.4531C122.146 52.5833 122.203 52.763 122.203 52.9922C122.203 53.3724 122.073 53.6797 121.812 53.9141C121.557 54.1484 121.255 54.2656 120.906 54.2656C120.651 54.2656 119.919 54.1927 118.711 54.0469ZM124.602 56.5859C125.534 55.6693 126.354 55.2109 127.062 55.2109C127.875 55.2109 128.409 55.5208 128.664 56.1406C129.378 55.5729 130.193 55.2891 131.109 55.2891C132.37 55.2891 133 56.0521 133 57.5781C133 57.9219 132.984 58.3698 132.953 58.9219C132.948 59.0156 132.932 59.8021 132.906 61.2812C132.891 62.0781 132.87 62.6667 132.844 63.0469C132.818 63.4219 132.674 63.7031 132.414 63.8906C132.154 64.0781 131.88 64.1719 131.594 64.1719C131.26 64.1719 131.023 64.0833 130.883 63.9062C130.742 63.7292 130.672 63.388 130.672 62.8828L130.852 58.7344C130.852 57.7917 130.747 57.3203 130.539 57.3203C130.435 57.3203 130.128 57.4531 129.617 57.7188C129.112 57.9792 128.779 58.1719 128.617 58.2969C128.534 58.7448 128.474 59.599 128.438 60.8594C128.365 62.4531 128.281 63.3776 128.188 63.6328C128.094 63.888 127.935 64.0911 127.711 64.2422C127.492 64.3984 127.255 64.4766 127 64.4766C126.719 64.4766 126.49 64.3906 126.312 64.2188C126.141 64.0521 126.055 63.8516 126.055 63.6172L126.164 62.7422C126.211 62.3464 126.255 61.7031 126.297 60.8125C126.365 59.5625 126.438 58.6875 126.516 58.1875C126.568 57.8646 126.586 57.599 126.57 57.3906C125.878 57.7448 125.125 58.3776 124.312 59.2891L123.672 62.9062C123.641 63.1771 123.505 63.3932 123.266 63.5547C123.026 63.7214 122.74 63.8047 122.406 63.8047C121.849 63.8047 121.57 63.4792 121.57 62.8281C121.57 62.599 121.599 62.3151 121.656 61.9766L122.102 59.0859C122.216 58.3568 122.297 57.7526 122.344 57.2734C122.411 56.5234 122.589 55.9297 122.875 55.4922C123.161 55.0495 123.474 54.8281 123.812 54.8281C124.089 54.8281 124.32 54.9271 124.508 55.125C124.701 55.3177 124.797 55.5365 124.797 55.7812C124.797 55.849 124.732 56.1172 124.602 56.5859ZM136.062 63.8047L135.562 66.9844C135.516 67.2917 135.375 67.5443 135.141 67.7422C134.906 67.9453 134.633 68.0469 134.32 68.0469C134.034 68.0469 133.807 67.9635 133.641 67.7969C133.474 67.6354 133.391 67.4297 133.391 67.1797C133.391 67.0339 133.555 66 133.883 64.0781C134.372 61.0885 134.68 58.7188 134.805 56.9688C134.846 56.3125 135.013 55.8047 135.305 55.4453C135.602 55.0859 135.935 54.9062 136.305 54.9062C136.596 54.9062 136.826 55.0052 136.992 55.2031C137.159 55.3958 137.221 55.6328 137.18 55.9141L137.148 55.9922C137.909 55.612 138.641 55.4219 139.344 55.4219C141.12 55.4219 142.008 56.4349 142.008 58.4609C142.008 60.2526 141.547 61.6172 140.625 62.5547C139.708 63.4922 138.651 63.9609 137.453 63.9609C136.953 63.9609 136.49 63.9089 136.062 63.8047ZM136.859 58.4297C136.766 59.2526 136.622 60.3229 136.43 61.6406C136.867 61.7917 137.32 61.8672 137.789 61.8672C138.513 61.8672 139.036 61.5495 139.359 60.9141C139.688 60.2786 139.852 59.5547 139.852 58.7422C139.852 57.9141 139.576 57.5 139.023 57.5C138.362 57.5 137.641 57.8099 136.859 58.4297ZM149.977 57.8672C149.935 58.1641 149.807 58.4401 149.594 58.6953C149.385 58.9453 149.086 59.0703 148.695 59.0703C148.143 59.0703 147.867 58.8203 147.867 58.3203C147.867 58.237 147.875 58.1458 147.891 58.0469L147.961 57.2578C146.768 57.4401 145.833 58.0443 145.156 59.0703L144.547 62.9844C144.5 63.276 144.362 63.5234 144.133 63.7266C143.904 63.9297 143.628 64.0312 143.305 64.0312C143.013 64.0312 142.792 63.9323 142.641 63.7344C142.49 63.5417 142.438 63.2917 142.484 62.9844L143.289 57.8672L143.484 56.75C143.542 56.3854 143.609 56.125 143.688 55.9688C143.771 55.8125 143.901 55.6797 144.078 55.5703C144.26 55.4609 144.471 55.4062 144.711 55.4062C145.294 55.4062 145.594 55.7031 145.609 56.2969C146.641 55.6042 147.716 55.2578 148.836 55.2578C149.69 55.2578 150.117 55.7292 150.117 56.6719C150.117 56.875 150.096 57.099 150.055 57.3438L149.977 57.8672ZM152.18 61.1484C152.628 61.6901 153.294 61.9609 154.18 61.9609C154.867 61.9609 155.479 61.8177 156.016 61.5312C156.495 61.276 156.865 61.1484 157.125 61.1484C157.583 61.1484 157.812 61.3464 157.812 61.7422C157.812 62.3516 157.401 62.8568 156.578 63.2578C155.755 63.6536 154.854 63.8516 153.875 63.8516C152.672 63.8516 151.729 63.5833 151.047 63.0469C150.37 62.5052 150.031 61.7786 150.031 60.8672C150.031 59.5911 150.484 58.3516 151.391 57.1484C152.302 55.9453 153.508 55.3438 155.008 55.3438C155.992 55.3438 156.758 55.5078 157.305 55.8359C157.857 56.1589 158.133 56.6198 158.133 57.2188C158.133 57.7865 157.914 58.2656 157.477 58.6562C157.044 59.0417 156.216 59.4818 154.992 59.9766L152.18 61.1484ZM152.32 59.1641L154.211 58.4141C154.898 58.1172 155.505 57.8177 156.031 57.5156C155.724 57.3229 155.289 57.2266 154.727 57.2266C153.763 57.2266 152.961 57.8724 152.32 59.1641ZM164.617 57.1328C164.404 57.1016 164.19 57.0859 163.977 57.0859C162.674 57.0859 162.023 57.2656 162.023 57.625C162.023 57.8333 162.359 58.0964 163.031 58.4141C164.146 58.9766 164.885 59.4453 165.25 59.8203C165.62 60.1901 165.805 60.625 165.805 61.125C165.805 61.8958 165.43 62.5625 164.68 63.125C163.935 63.6823 162.922 63.9609 161.641 63.9609C160.901 63.9609 160.245 63.8359 159.672 63.5859C159.099 63.3359 158.812 62.9948 158.812 62.5625C158.812 61.9062 159.169 61.5781 159.883 61.5781C160.122 61.5781 160.453 61.6536 160.875 61.8047C161.339 61.9557 161.68 62.0312 161.898 62.0312C163.023 62.0312 163.586 61.7995 163.586 61.3359C163.586 61.0859 163.268 60.8099 162.633 60.5078C161.544 59.9974 160.815 59.5755 160.445 59.2422C160.081 58.9089 159.898 58.4766 159.898 57.9453C159.898 57.1745 160.232 56.5182 160.898 55.9766C161.565 55.4349 162.911 55.1641 164.938 55.1641C165.948 55.1641 166.453 55.4792 166.453 56.1094C166.453 56.4375 166.37 56.7995 166.203 57.1953C166.036 57.5911 165.786 57.7891 165.453 57.7891C164.927 57.7891 164.648 57.5703 164.617 57.1328ZM172.414 57.1328C172.201 57.1016 171.987 57.0859 171.773 57.0859C170.471 57.0859 169.82 57.2656 169.82 57.625C169.82 57.8333 170.156 58.0964 170.828 58.4141C171.943 58.9766 172.682 59.4453 173.047 59.8203C173.417 60.1901 173.602 60.625 173.602 61.125C173.602 61.8958 173.227 62.5625 172.477 63.125C171.732 63.6823 170.719 63.9609 169.438 63.9609C168.698 63.9609 168.042 63.8359 167.469 63.5859C166.896 63.3359 166.609 62.9948 166.609 62.5625C166.609 61.9062 166.966 61.5781 167.68 61.5781C167.919 61.5781 168.25 61.6536 168.672 61.8047C169.135 61.9557 169.477 62.0312 169.695 62.0312C170.82 62.0312 171.383 61.7995 171.383 61.3359C171.383 61.0859 171.065 60.8099 170.43 60.5078C169.341 59.9974 168.612 59.5755 168.242 59.2422C167.878 58.9089 167.695 58.4766 167.695 57.9453C167.695 57.1745 168.029 56.5182 168.695 55.9766C169.362 55.4349 170.708 55.1641 172.734 55.1641C173.745 55.1641 174.25 55.4792 174.25 56.1094C174.25 56.4375 174.167 56.7995 174 57.1953C173.833 57.5911 173.583 57.7891 173.25 57.7891C172.724 57.7891 172.445 57.5703 172.414 57.1328Z" fill="white"/>
</svg>
